<?xml version="1.0" encoding="UTF-8"?>
<svg width="12px" height="12px" viewBox="0 0 12 12" version="1.1" xmlns="http://www.w3.org/2000/svg" xmlns:xlink="http://www.w3.org/1999/xlink">
    <title>上升-white</title>
    <g id="页面-1" stroke="none" stroke-width="1" fill="none" fill-rule="evenodd">
        <g id="画板" transform="translate(-23.000000, -58.000000)" fill-rule="nonzero">
            <g id="向上" transform="translate(23.000000, 58.000000)">
                <rect id="矩形" fill="#00CC66" opacity="0" x="0" y="0" width="12" height="12"></rect>
                <path d="M5.508,11.448 C5.164,11.448 4.932,11.368 4.812,11.208 C4.692,11.048 4.632,10.792 4.632,10.44 C4.632,10.28 4.63,10.028 4.626,9.684 C4.622,9.34 4.618,8.974 4.614,8.586 C4.61,8.198 4.604,7.82 4.596,7.452 C4.588,7.084 4.584,6.792 4.584,6.576 C4.584,6.264 4.554,6.02 4.494,5.844 C4.434,5.668 4.296,5.584 4.08,5.592 C3.92,5.592 3.73,5.588 3.51,5.58 C3.29,5.572 3.096,5.572 2.928,5.58 C2.648,5.58 2.47,5.504 2.394,5.352 C2.318,5.2 2.372,5.004 2.556,4.764 C2.748,4.524 2.972,4.24 3.228,3.912 C3.484,3.584 3.748,3.248 4.02,2.904 C4.292,2.56 4.558,2.22 4.818,1.884 C5.078,1.548 5.308,1.252 5.508,0.996 C5.692,0.764 5.87,0.644 6.042,0.636 C6.214,0.628 6.396,0.732 6.588,0.948 C6.78,1.18 7.002,1.452 7.254,1.764 C7.506,2.076 7.768,2.398 8.04,2.73 C8.312,3.062 8.58,3.39 8.844,3.714 C9.108,4.038 9.344,4.324 9.552,4.572 C9.784,4.852 9.874,5.082 9.822,5.262 C9.77,5.442 9.6,5.532 9.312,5.532 C9.224,5.532 9.126,5.534 9.018,5.538 C8.91,5.542 8.796,5.546 8.676,5.55 C8.556,5.554 8.438,5.558 8.322,5.562 C8.206,5.566 8.1,5.568 8.004,5.568 C7.804,5.576 7.678,5.64 7.626,5.76 C7.574,5.88 7.552,6.044 7.56,6.252 C7.56,6.484 7.562,6.788 7.566,7.164 C7.57,7.54 7.574,7.932 7.578,8.34 C7.582,8.748 7.588,9.144 7.596,9.528 C7.604,9.912 7.608,10.224 7.608,10.464 C7.608,10.568 7.6,10.676 7.584,10.788 C7.568,10.9 7.53,11.002 7.47,11.094 C7.41,11.186 7.326,11.264 7.218,11.328 C7.11,11.392 6.968,11.424 6.792,11.424 C6.576,11.424 6.37,11.426 6.174,11.43 C5.978,11.434 5.756,11.44 5.508,11.448 L5.508,11.448 Z" id="路径" fill="#FFFFFF"></path>
            </g>
        </g>
    </g>
</svg>