<?xml version="1.0" encoding="UTF-8"?>
<svg width="28px" height="28px" viewBox="0 0 28 28" version="1.1" xmlns="http://www.w3.org/2000/svg" xmlns:xlink="http://www.w3.org/1999/xlink">
    <!-- Generator: Sketch 63.1 (92452) - https://sketch.com -->
    <title>发票实务</title>
    <desc>Created with Sketch.</desc>
    <g id="咨询前台web端--6月迭代" stroke="none" stroke-width="1" fill="none" fill-rule="evenodd">
        <g id="切图画板" transform="translate(-601.000000, -110.000000)">
            <g id="编组-4" transform="translate(601.000000, 113.000000)">
                <g id="shouye_5" fill="#666666">
                    <path d="M27.2175672,8.522398 C27.6729309,8.42983201 28,8.02946847 28,7.56495763 L28,2.94130992 C28,1.3254705 26.6855864,0.0110569042 25.069747,0.0110569042 L15.9534434,0.0110569042 C15.4141136,0.0110569042 14.9768096,0.44824357 14.9768096,0.987886089 C14.9768096,1.52733316 15.4141136,1.96451982 15.9534434,1.96451982 L25.069747,1.96451982 C25.6084513,1.96451982 26.0465371,2.40260557 26.0465371,2.94130992 L26.0465371,6.84792303 C24.4991058,7.49475133 23.4418677,9.02811008 23.4418677,10.7552789 C23.4418677,12.4824086 24.4991058,14.0159627 26.0465371,14.6626347 L26.0465371,18.5692087 C26.0465371,19.1079522 25.6084513,19.5460379 25.069747,19.5460379 L15.9534434,19.5460379 C15.4141136,19.5460379 14.9768096,19.9831855 14.9768096,20.5226716 C14.9768096,21.0623141 15.4141136,21.4994617 15.9534434,21.4994617 L25.069747,21.4994617 C26.6855864,21.4994617 28,20.1850481 28,18.5692087 L28,13.945561 C28,13.4810502 27.6729309,13.080843 27.2175672,12.9883161 C26.1616973,12.7739054 25.3954479,11.8346812 25.3954479,10.7552789 C25.3954479,9.67583746 26.1616973,8.73661321 27.2175672,8.522398 Z M12.046713,0.0110569042 C12.5861991,0.0110569042 13.0235031,0.44824357 13.0235031,0.987886089 C13.0235031,1.52733316 12.5861991,1.96451982 12.046713,1.96451982 L12.046713,1.96451982 L2.93025301,1.96451982 C2.39170502,1.96451982 1.95346292,2.40276193 1.95346292,2.94130992 L1.95346292,2.94130992 L1.95346292,6.84792303 C3.50116782,7.49475133 4.55813226,9.02811008 4.55813226,10.7552789 C4.55813226,12.4824086 3.50116782,14.0158064 1.95346292,14.6626347 L1.95346292,14.6626347 L1.95346292,18.5693651 C1.95346292,19.1079522 2.39170502,19.5460379 2.93025301,19.5460379 L2.93025301,19.5460379 L12.046713,19.5460379 C12.5861991,19.5460379 13.0235031,19.9831855 13.0235031,20.522828 C13.0235031,21.0623141 12.5861991,21.4994617 12.046713,21.4994617 L12.046713,21.4994617 L2.93025301,21.4994617 C1.31456996,21.4994617 0,20.1850481 0,18.5692087 L0,18.5692087 L0,13.9457174 C0,13.4810502 0.327225463,13.080843 0.782276428,12.9883161 C1.8383027,12.7739054 2.60470843,11.8346812 2.60470843,10.7552789 C2.60470843,9.67583746 1.8383027,8.73661321 0.782276428,8.522398 C0.327225463,8.42983201 0,8.02946847 0,7.56495763 L0,7.56495763 L0,2.94130992 C0,1.3254705 1.31456996,0.0110569042 2.93025301,0.0110569042 L2.93025301,0.0110569042 Z M21.2872971,16 C21.8262483,16 22.2630014,16.4367531 22.2630014,16.9758215 C22.2630014,17.5149289 21.8262483,17.951682 21.2872971,17.951682 L21.2872971,17.951682 L6.97566527,17.951682 C6.43671409,17.951682 6,17.5149289 6,16.9758215 C6,16.4367531 6.43671409,16 6.97582148,16 L6.97582148,16 Z" id="Fill-1"></path>
                </g>
                <path d="M2.6865231,8.99997999 C2.6865231,9.55243412 3.14480886,10 3.71038177,10 L10.6626234,10 C11.2281964,10 11.6865231,9.55243412 11.6865231,8.99997999 C11.6865231,8.44756588 11.2281964,8 10.6626234,8 L3.71054569,8 C3.14480886,8 2.6865231,8.44756588 2.6865231,8.99997999 Z" id="路径" fill="#FF8040" transform="translate(7.186523, 9.000000) rotate(-90.000000) translate(-7.186523, -9.000000) "></path>
                <path d="M10.4940642,4.5 C11.0397634,4.5 11.4818568,4.95832674 11.4818568,5.52389965 L11.4818568,5.52389965 L11.4818568,12.4761413 C11.4818568,13.0417142 11.0397634,13.5 10.4940642,13.5 C9.94840461,13.5 9.50631121,13.0417142 9.50631121,12.4759774 L9.50631121,12.4759774 L9.50631121,5.52389965 C9.50631121,4.95832674 9.94840461,4.5 10.4940642,4.5 Z M12.5185186,4.5 C13.0642178,4.5 13.5063112,4.95832674 13.5063112,5.52389965 L13.5063112,5.52389965 L13.5063112,12.4761413 C13.5063112,13.0417142 13.0642178,13.5 12.5185186,13.5 C11.972859,13.5 11.5307656,13.0417142 11.5307656,12.4759774 L11.5307656,12.4759774 L11.5307656,5.52389965 C11.5307656,4.95832674 11.972859,4.5 12.5185186,4.5 Z" id="形状结合" fill="#FF8040"></path>
                <polygon id="矩形" fill="#FF8040" points="10.4824011 4.5 12.5185186 4.5 12.5185186 13.5 10.4824011 13.5"></polygon>
                <path d="M11.6865231,8.99997999 C11.6865231,9.55243412 12.1448089,10 12.7103818,10 L19.6626234,10 C20.2281964,10 20.6865231,9.55243412 20.6865231,8.99997999 C20.6865231,8.44756588 20.2281964,8 19.6626234,8 L12.7105457,8 C12.1448089,8 11.6865231,8.44756588 11.6865231,8.99997999 Z" id="路径" fill="#FF8040" transform="translate(16.186523, 9.000000) rotate(-90.000000) translate(-16.186523, -9.000000) "></path>
                <path d="M16.6865231,8.99997999 C16.6865231,9.55243412 17.1448089,10 17.7103818,10 L24.6626234,10 C25.2281964,10 25.6865231,9.55243412 25.6865231,8.99997999 C25.6865231,8.44756588 25.2281964,8 24.6626234,8 L17.7105457,8 C17.1448089,8 16.6865231,8.44756588 16.6865231,8.99997999 Z" id="路径" fill="#FF8040" transform="translate(21.186523, 9.000000) rotate(-90.000000) translate(-21.186523, -9.000000) "></path>
                <path d="M18.5,4.5 C18.7761424,4.5 19,4.72385763 19,5 L19,13 C19,13.2761424 18.7761424,13.5 18.5,13.5 C18.2238576,13.5 18,13.2761424 18,13 L18,5 C18,4.72385763 18.2238576,4.5 18.5,4.5 Z" id="矩形" fill="#FF8040"></path>
            </g>
        </g>
    </g>
</svg>