<?xml version="1.0" encoding="UTF-8"?>
<svg width="28px" height="28px" viewBox="0 0 28 28" version="1.1" xmlns="http://www.w3.org/2000/svg" xmlns:xlink="http://www.w3.org/1999/xlink">
    <!-- Generator: Sketch 63.1 (92452) - https://sketch.com -->
    <title>财务处理</title>
    <desc>Created with Sketch.</desc>
    <defs>
        <polygon id="path-1" points="8.87559911e-17 0 27.2364345 0 27.2364345 27.9335877 8.87559911e-17 27.9335877"></polygon>
    </defs>
    <g id="咨询前台web端--6月迭代" stroke="none" stroke-width="1" fill="none" fill-rule="evenodd">
        <g id="切图画板" transform="translate(-671.000000, -104.000000)">
            <g id="shouye_11" transform="translate(671.000000, 104.000000)">
                <mask id="mask-2" fill="white">
                    <use xlink:href="#path-1"></use>
                </mask>
                <g id="Clip-2"></g>
                <path d="M23.0232925,0.027454039 L7.51260724,0.027454039 C5.18833426,0.027454039 3.29712535,1.91866295 3.29712535,4.24293593 L3.29712535,6.33232869 C3.29712535,6.8697883 3.73249025,7.3051532 4.26991086,7.3051532 C4.80733148,7.3051532 5.24269638,6.8697883 5.24269638,6.33232869 L5.24269638,4.24293593 C5.24269638,2.99151532 6.26122563,1.97302507 7.51260724,1.97302507 L23.0232925,1.97302507 C24.2748691,1.97302507 25.2932033,2.99151532 25.2932033,4.24293593 L25.2932033,23.7455209 C25.2932033,24.9969415 24.2748691,26.0154318 23.0232925,26.0154318 L7.51260724,26.0154318 C6.26122563,26.0154318 5.24269638,24.9969415 5.24269638,23.7455209 L5.24269638,22.0313203 C5.24269638,21.4938997 4.80733148,21.0585348 4.26991086,21.0585348 C3.73249025,21.0585348 3.29712535,21.4938997 3.29712535,22.0313203 L3.29712535,23.7455209 C3.29712535,26.0697939 5.18833426,27.9610418 7.51260724,27.9610418 L23.0232925,27.9610418 C25.3475655,27.9610418 27.2387744,26.0697939 27.2387744,23.7455209 L27.2387744,4.24293593 C27.2387744,1.91850696 25.3475655,0.027454039 23.0232925,0.027454039 Z M6.53982173,18.409922 C6.53982173,17.8726184 6.10445682,17.4370975 5.56703621,17.4370975 L2.97278552,17.4370975 C2.4353649,17.4370975 2,17.8726184 2,18.409922 C2,18.9473426 2.4353649,19.3828635 2.97278552,19.3828635 L5.56703621,19.3828635 C6.10445682,19.3828635 6.53982173,18.9473426 6.53982173,18.409922 Z M2.97278552,10.3032201 L5.56703621,10.3032201 C6.10445682,10.3032201 6.53982173,9.86785515 6.53982173,9.33039554 C6.53982173,8.79297493 6.10445682,8.35761003 5.56703621,8.35761003 L2.97278552,8.35761003 C2.43552089,8.35761003 2,8.79297493 2,9.33039554 C2,9.86785515 2.43552089,10.3032201 2.97278552,10.3032201 Z M2.97278552,14.8430418 L5.56703621,14.8430418 C6.10445682,14.8430418 6.53982173,14.4075209 6.53982173,13.8702173 C6.53982173,13.3327967 6.10445682,12.8972758 5.56703621,12.8972758 L2.97278552,12.8972758 C2.43552089,12.8972758 2,13.3327967 2,13.8702173 C2,14.4075209 2.43552089,14.8430418 2.97278552,14.8430418 Z" id="Fill-1" fill="#666666" mask="url(#mask-2)"></path>
                <path d="M19.0354167,13.9741235 C19.6081564,13.9741235 20.0724537,13.5098262 20.0724537,12.9370865 C20.0724537,12.3643467 19.6081564,11.9000494 19.0354167,11.9000494 L16.9856481,11.9000494 L19.115463,9.7705587 C19.3774743,9.5085474 19.4798014,9.12665759 19.3838986,8.76874348 C19.2879958,8.41082937 19.008433,8.13126663 18.6505189,8.03536383 C18.2926048,7.93946104 17.910715,8.04178812 17.6487037,8.30379944 L15.5354167,10.4174106 L13.4221296,8.30379944 C13.1601183,8.04178812 12.7782285,7.93946104 12.4203144,8.03536383 C12.0624003,8.13126663 11.7828376,8.41082937 11.6869348,8.76874348 C11.591032,9.12665759 11.693359,9.5085474 11.9553704,9.7705587 L14.0864815,11.9000494 L12.037037,11.9000494 C11.4642973,11.9000494 11,12.3643467 11,12.9370865 C11,13.5098262 11.4642973,13.9741235 12.037037,13.9741235 L14.5324074,13.9741235 L14.5324074,15.4972717 L12.037037,15.4972717 C11.4642973,15.4972717 11,15.961569 11,16.5343087 C11,17.1070484 11.4642973,17.5713457 12.037037,17.5713457 L14.5324074,17.5713457 L14.5324074,19.0296791 C14.5324074,19.6024188 14.9967047,20.0667161 15.5694444,20.0667161 C16.1421842,20.0667161 16.6064815,19.6024188 16.6064815,19.0296791 L16.6064815,17.5713457 L19.037037,17.5713457 C19.6097768,17.5713457 20.0740741,17.1070484 20.0740741,16.5343087 C20.0740741,15.961569 19.6097768,15.4972717 19.037037,15.4972717 L16.6064815,15.4972717 L16.6064815,13.9741235 L19.0354167,13.9741235 Z" id="路径" fill="#FF8040" fill-rule="nonzero" mask="url(#mask-2)"></path>
            </g>
        </g>
    </g>
</svg>