<?xml version="1.0" encoding="UTF-8"?>
<svg width="28px" height="28px" viewBox="0 0 28 28" version="1.1" xmlns="http://www.w3.org/2000/svg" xmlns:xlink="http://www.w3.org/1999/xlink">
    <!-- Generator: Sketch 63.1 (92452) - https://sketch.com -->
    <title>汇算清缴</title>
    <desc>Created with Sketch.</desc>
    <defs>
        <polygon id="path-1" points="0 5.8333333e-06 22 5.8333333e-06 22 28 0 28"></polygon>
    </defs>
    <g id="咨询前台web端--6月迭代" stroke="none" stroke-width="1" fill="none" fill-rule="evenodd">
        <g id="切图画板" transform="translate(-534.000000, -161.000000)">
            <g id="汇算清缴" transform="translate(537.000000, 161.000000)">
                <path d="M5.35366708,21.1091825 L18.3516754,8.152445 C18.7161421,7.78794917 18.7161421,7.19697417 18.3516754,6.8325075 C17.9871504,6.46801167 17.3962046,6.46801167 17.0317379,6.8325075 L4.03372958,19.789245 C3.66926292,20.1537117 3.66926292,20.7446867 4.03372958,21.1091825 C4.39822542,21.4736492 4.98917125,21.4736492 5.35366708,21.1091825" id="Fill-1" fill="#666666"></path>
                <path d="M4.29478,6.0666725 L11.5864467,6.09583917 C12.1019092,6.09583917 12.51978,5.67796833 12.51978,5.16250583 C12.51978,4.64704333 12.1019092,4.2291725 11.5864467,4.2291725 L4.29478,4.20000583 C3.7793175,4.20000583 3.36144667,4.61787667 3.36144667,5.13333917 C3.36144667,5.64880167 3.7793175,6.0666725 4.29478,6.0666725" id="Fill-3" fill="#666666"></path>
                <path d="M4.29478,9.59583917 L11.5864467,9.62500583 C12.1019092,9.62500583 12.51978,9.207135 12.51978,8.6916725 C12.51978,8.17621 12.1019092,7.75833917 11.5864467,7.75833917 L4.29478,7.7291725 C3.7793175,7.7291725 3.36144667,8.14704333 3.36144667,8.66250583 C3.36144667,9.17796833 3.7793175,9.59583917 4.29478,9.59583917" id="Fill-5" fill="#666666"></path>
                <path d="M15.3489467,23.6250058 L15.3597675,20.9161808 L18.07603,20.9270892 C18.5914925,20.9270892 19.0093633,20.5092183 19.0093633,19.9937558 C19.0093633,19.4782933 18.5914925,19.0604225 18.07603,19.0604225 L15.3672633,19.0495433 L15.3781133,16.3333392 C15.3781133,15.8178767 14.9602425,15.4000058 14.44478,15.4000058 C13.9293175,15.4000058 13.5114467,15.8178767 13.5114467,16.3333392 L13.5006258,19.0420475 L10.81353,19.0312558 C10.2980675,19.0312558 9.88019667,19.4491267 9.88019667,19.9645892 C9.88019667,20.4800517 10.2980675,20.8979225 10.81353,20.8979225 L13.49313,20.908685 L13.48228,23.6250058 C13.48228,24.1404683 13.9001508,24.5583392 14.4156133,24.5583392 C14.9310758,24.5583392 15.3489467,24.1404683 15.3489467,23.6250058 Z" id="Fill-7" fill="#FF8040"></path>
                <mask id="mask-2" fill="white">
                    <use xlink:href="#path-1"></use>
                </mask>
                <g id="Clip-10"></g>
                <path d="M22,13.0847417 L22,2.33333333 C22,1.04469167 20.9739635,0 19.7083333,0 L2.29166667,0 C1.02600781,0 0,1.04469167 0,2.33333333 L0,25.6666667 C0,26.9553375 1.02600781,28 2.29166667,28 L19.7083333,28 C20.9739635,28 22,26.9553375 22,25.6666667 L22,16.7540125 C22,16.2298583 21.5755547,15.8065625 21.0575234,15.8210583 C20.5582552,15.8349708 20.1666667,16.2648875 20.1666667,16.7734375 L20.1666667,25.4333333 C20.1666667,25.8199375 19.8588385,26.1333333 19.4791667,26.1333333 L2.52083333,26.1333333 C2.14113281,26.1333333 1.83333333,25.8199375 1.83333333,25.4333333 L1.83333333,2.56666667 C1.83333333,2.1800625 2.14113281,1.86666667 2.52083333,1.86666667 L19.4791667,1.86666667 C19.8588385,1.86666667 20.1666667,2.1800625 20.1666667,2.56666667 L20.1666667,13.1041667 C20.1666667,13.62835 20.5910833,14.0516167 21.1091146,14.03715 C21.6084115,14.0231792 22,13.5933208 22,13.0847417 Z" id="Fill-9" fill="#666666" mask="url(#mask-2)"></path>
            </g>
        </g>
    </g>
</svg>