<?xml version="1.0" encoding="UTF-8"?>
<svg width="28px" height="28px" viewBox="0 0 28 28" version="1.1" xmlns="http://www.w3.org/2000/svg" xmlns:xlink="http://www.w3.org/1999/xlink">
    <!-- Generator: Sketch 63.1 (92452) - https://sketch.com -->
    <title>政策查询</title>
    <desc>Created with Sketch.</desc>
    <g id="咨询前台web端--6月迭代" stroke="none" stroke-width="1" fill="none" fill-rule="evenodd">
        <g id="切图画板" transform="translate(-600.000000, -161.000000)" fill-rule="nonzero">
            <g id="政策查询" transform="translate(600.000000, 161.000000)">
                <path d="M26.9317919,25.8972486 L1.03583815,25.8648786 C0.463760537,25.8648786 -1.84001818e-15,26.3286391 -1.84001818e-15,26.9007168 C-1.84001818e-15,27.4727944 0.463760537,27.9365549 1.03583815,27.9365549 L26.9317919,27.9689249 C27.5038695,27.9689249 27.9676301,27.5051643 27.9676301,26.9330867 C27.9676301,26.3610091 27.5038695,25.8972486 26.9317919,25.8972486 Z" id="路径" fill="#666666"></path>
                <path d="M2.61387283,23.2752832 L25.3699422,23.2752832 C26.8001362,23.2752832 27.9595377,22.1158819 27.9595377,20.6856879 L27.9595377,17.1809942 C27.9595377,16.9011499 27.8465256,16.6331674 27.645921,16.4380505 C27.4453164,16.2429335 27.1743001,16.1372854 26.8945665,16.1451561 C26.3303584,16.1606936 25.8878613,16.6375029 25.8878613,17.2020347 L25.8878613,20.4267283 C25.8878613,20.8557865 25.5400409,21.2036069 25.1109827,21.2036069 L2.87283237,21.2036069 C2.44377416,21.2036069 2.09595376,20.8557865 2.09595376,20.4267283 L2.09595376,2.84984971 C2.09595376,2.4207915 2.44377416,2.0729711 2.87283237,2.0729711 L25.1109827,2.0729711 C25.5400409,2.0729711 25.8878613,2.4207915 25.8878613,2.84984971 L25.8878613,12.6288092 C25.8877506,12.9086535 26.0008732,13.1766361 26.2014778,13.371753 C26.4020824,13.56687 26.6730988,13.672518 26.9528324,13.6646474 C27.5167168,13.6491098 27.9595377,13.1719769 27.9595377,12.6074451 L27.9595377,2.59089017 C27.9595377,1.90408678 27.686706,1.24541306 27.2010626,0.759769723 C26.7154193,0.274126384 26.0567456,0.00129479769 25.3699422,0.00129479769 L2.61387283,0.00129479769 C1.1836788,0.00129479769 0.0242774566,1.16069614 0.0242774566,2.59089017 L0.0242774566,20.6856879 C0.0242774566,22.1158819 1.1836788,23.2752832 2.61387283,23.2752832 Z" id="路径" fill="#666666"></path>
                <path d="M21.8082775,16.161341 L19.2322775,14.2191445 C19.6816927,13.3212037 19.9151322,12.3306932 19.9139884,11.3265665 C19.9139884,7.74839306 17.0029595,4.83736416 13.4247861,4.83736416 C9.84661272,4.83736416 6.93590751,7.74709827 6.93590751,11.3252717 C6.93590751,14.9034451 9.84693642,17.814474 13.4247861,17.814474 C15.1510104,17.8151821 16.8059213,17.1259467 18.0213179,15.9001156 L20.5597688,17.8151214 C20.8548912,18.0428044 21.2495861,18.0943668 21.5932943,17.9501398 C21.9370025,17.8059128 22.1767165,17.4881393 22.2209957,17.1180365 C22.2652748,16.7479336 22.1072903,16.3825795 21.8073064,16.161341 L21.8082775,16.161341 Z M13.4244624,15.7427977 C10.9886243,15.7427977 9.00726012,13.7611098 9.00726012,11.3252717 C9.00726012,8.88943353 10.988948,6.90774566 13.4247861,6.90774566 C15.8606243,6.90774566 17.8423121,8.88943353 17.8423121,11.3252717 C17.8423121,13.7611098 15.8606243,15.7427977 13.4247861,15.7427977 L13.4244624,15.7427977 Z" id="形状" fill="#FF8040"></path>
            </g>
        </g>
    </g>
</svg>