<?xml version="1.0" encoding="UTF-8"?>
<svg width="780px" height="1028px" viewBox="0 0 780 1028" version="1.1" xmlns="http://www.w3.org/2000/svg" xmlns:xlink="http://www.w3.org/1999/xlink">
    <title>编组 6</title>
    <g id="视觉走查阶段更新" stroke="none" stroke-width="1" fill="none" fill-rule="evenodd">
        <g id="页面加载默认态" transform="translate(-130.000000, -84.000000)">
            <g id="编组-6" transform="translate(130.000000, 84.000000)">
                <rect id="矩形备份-11" fill="#FFFFFF" x="0" y="0" width="780" height="1028"></rect>
                <g id="编组-5" transform="translate(20.000000, 347.000000)">
                    <line x1="-1.88092272e-13" y1="149.750169" x2="739.999831" y2="149.249831" id="直线-2备份-7" stroke="#E4E4E4" stroke-linecap="square"></line>
                    <rect id="矩形备份-12" fill="#F4F6F9" x="1" y="0" width="738" height="26"></rect>
                    <rect id="矩形备份-14" fill="#F4F6F9" x="1" y="113" width="157" height="16"></rect>
                    <rect id="矩形备份-18" fill="#F4F6F9" x="628" y="113" width="111" height="16"></rect>
                    <rect id="矩形备份-21" fill="#F4F6F9" x="2" y="38" width="157" height="16"></rect>
                    <rect id="矩形备份-22" fill="#F4F6F9" x="2" y="64" width="738" height="16"></rect>
                    <rect id="矩形备份-23" fill="#F4F6F9" x="2" y="85" width="738" height="16"></rect>
                </g>
                <g id="编组-5备份-5" transform="translate(20.000000, 110.000000)">
                    <line x1="-1.88092272e-13" y1="46.500338" x2="739.999831" y2="46" id="直线-2备份-7" stroke="#E4E4E4" stroke-linecap="square"></line>
                    <rect id="矩形备份-12" fill="#F4F6F9" x="1" y="0" width="738" height="26"></rect>
                </g>
                <g id="编组-5备份-6" transform="translate(21.000000, 73.000000)" fill="#F4F6F9">
                    <rect id="矩形备份-12" x="0" y="0" width="407" height="26"></rect>
                </g>
                <g id="编组-5备份-2" transform="translate(20.000000, 177.000000)">
                    <line x1="-1.88092272e-13" y1="149.750169" x2="739.999831" y2="149.249831" id="直线-2备份-7" stroke="#E4E4E4" stroke-linecap="square"></line>
                    <rect id="矩形备份-12" fill="#F4F6F9" x="1" y="0" width="738" height="26"></rect>
                    <rect id="矩形备份-14" fill="#F4F6F9" x="1" y="113" width="157" height="16"></rect>
                    <rect id="矩形备份-18" fill="#F4F6F9" x="628" y="113" width="111" height="16"></rect>
                    <rect id="矩形备份-21" fill="#F4F6F9" x="2" y="38" width="157" height="16"></rect>
                    <rect id="矩形备份-22" fill="#F4F6F9" x="2" y="64" width="738" height="16"></rect>
                    <rect id="矩形备份-23" fill="#F4F6F9" x="2" y="85" width="738" height="16"></rect>
                </g>
                <g id="编组-5备份-3" transform="translate(20.000000, 517.000000)">
                    <line x1="-1.88092272e-13" y1="149.750169" x2="739.999831" y2="149.249831" id="直线-2备份-7" stroke="#E4E4E4" stroke-linecap="square"></line>
                    <rect id="矩形备份-12" fill="#F4F6F9" x="1" y="0" width="738" height="26"></rect>
                    <rect id="矩形备份-14" fill="#F4F6F9" x="1" y="113" width="157" height="16"></rect>
                    <rect id="矩形备份-18" fill="#F4F6F9" x="628" y="113" width="111" height="16"></rect>
                    <rect id="矩形备份-21" fill="#F4F6F9" x="2" y="38" width="157" height="16"></rect>
                    <rect id="矩形备份-22" fill="#F4F6F9" x="2" y="64" width="738" height="16"></rect>
                    <rect id="矩形备份-23" fill="#F4F6F9" x="2" y="85" width="738" height="16"></rect>
                </g>
                <g id="编组-5备份-4" transform="translate(20.000000, 687.000000)">
                    <line x1="-1.88092272e-13" y1="149.750169" x2="739.999831" y2="149.249831" id="直线-2备份-7" stroke="#E4E4E4" stroke-linecap="square"></line>
                    <rect id="矩形备份-12" fill="#F4F6F9" x="1" y="0" width="738" height="26"></rect>
                    <rect id="矩形备份-14" fill="#F4F6F9" x="1" y="113" width="157" height="16"></rect>
                    <rect id="矩形备份-18" fill="#F4F6F9" x="628" y="113" width="111" height="16"></rect>
                    <rect id="矩形备份-21" fill="#F4F6F9" x="2" y="38" width="157" height="16"></rect>
                    <rect id="矩形备份-22" fill="#F4F6F9" x="2" y="64" width="738" height="16"></rect>
                    <rect id="矩形备份-23" fill="#F4F6F9" x="2" y="85" width="738" height="16"></rect>
                </g>
                <g id="编组-5备份-7" transform="translate(20.000000, 857.000000)">
                    <line x1="-1.88092272e-13" y1="149.750169" x2="739.999831" y2="149.249831" id="直线-2备份-7" stroke="#E4E4E4" stroke-linecap="square"></line>
                    <rect id="矩形备份-12" fill="#F4F6F9" x="1" y="0" width="738" height="26"></rect>
                    <rect id="矩形备份-14" fill="#F4F6F9" x="1" y="113" width="157" height="16"></rect>
                    <rect id="矩形备份-18" fill="#F4F6F9" x="628" y="113" width="111" height="16"></rect>
                    <rect id="矩形备份-21" fill="#F4F6F9" x="2" y="38" width="157" height="16"></rect>
                    <rect id="矩形备份-22" fill="#F4F6F9" x="2" y="64" width="738" height="16"></rect>
                    <rect id="矩形备份-23" fill="#F4F6F9" x="2" y="85" width="738" height="16"></rect>
                </g>
                <g id="Group-15备份" transform="translate(20.000000, 20.000000)" fill="#F4F6F9">
                    <path d="M0,3.0065012 C0,1.34605644 1.34363639,0 3.00646917,0 L696.993531,0 C698.653958,0 700,1.34230941 700,3.0065012 L700,36.9934988 C700,38.6539436 698.656364,40 696.993531,40 L3.00646917,40 C1.3460421,40 0,38.6576906 0,36.9934988 L0,3.0065012 Z" id="Rectangle-Copy-70"></path>
                    <path d="M676,0 L737,0 C738.656854,-3.04359188e-16 740,1.34314575 740,3 L740,37 C740,38.6568542 738.656854,40 737,40 L676,40 L676,40 L676,0 Z" id="Rectangle-Copy-71"></path>
                </g>
            </g>
        </g>
    </g>
</svg>