<?xml version="1.0" encoding="UTF-8"?>
<svg width="32px" height="32px" viewBox="0 0 32 32" version="1.1" xmlns="http://www.w3.org/2000/svg" xmlns:xlink="http://www.w3.org/1999/xlink">
    <title>财税小管家</title>
    <defs>
        <circle id="path-1" cx="16" cy="16" r="16"></circle>
        <linearGradient x1="52.3556065%" y1="22.4347101%" x2="33.7553865%" y2="66.4199259%" id="linearGradient-3">
            <stop stop-color="#3560D1" offset="0%"></stop>
            <stop stop-color="#103F93" offset="100%"></stop>
        </linearGradient>
        <path d="M1.33546427,35.2729558 L3.61213837,35.8949977 L15.3622187,35.8719423 L20.5876168,35.8949977 L24.1639601,35.3495442 C24.6230077,25.7362309 23.8079271,18.1745671 21.7187183,12.6645528 C19.6295095,7.15453837 17.9464501,3.92923488 16.6695401,2.98864231 C13.0426243,0.991743276 11.0539506,-0.00455279029 10.7035189,-0.000245887834 C8.46416785,0.0287283232 7.28021091,0.12460322 6.16759525,0.494138016 C5.83939738,0.603142891 4.28425449,1.11208311 2.83838158,1.76311282 C1.4479468,2.38918053 0.158563328,3.14665054 0.158563328,3.80621354 C0.158563328,5.15163703 -0.267247131,12.0201582 0.276706711,18.2756058 C0.388147351,19.5571687 0.741066537,25.222952 1.33546427,35.2729558 Z" id="path-4"></path>
        <path d="M-5.45241452,35.2729558 L-3.17574042,35.8949977 L8.57433987,35.8719423 L13.799738,35.8949977 L17.3760813,35.3495442 C17.8351289,25.7362309 17.0200483,18.1745671 14.9308395,12.6645528 C12.8416307,7.15453837 11.1585713,3.92923488 9.88166131,2.98864231 C6.25474556,0.991743276 4.26607184,-0.00455279029 3.91564014,-0.000245887834 C1.67628906,0.0287283232 0.492332122,0.12460322 -0.620283541,0.494138016 C-0.948481405,0.603142891 -2.5036243,1.11208311 -3.94949721,1.76311282 C-5.33993198,2.38918053 -6.62931546,3.14665054 -6.62931546,3.80621354 C-6.62931546,5.15163703 -7.05512592,12.0201582 -6.51117208,18.2756058 C-6.39973144,19.5571687 -6.04681225,25.222952 -5.45241452,35.2729558 Z" id="path-6"></path>
        <linearGradient x1="64.8136392%" y1="90.5295627%" x2="50%" y2="13.3065262%" id="linearGradient-8">
            <stop stop-color="#FFF2E3" offset="0%"></stop>
            <stop stop-color="#FFCDB1" offset="100%"></stop>
        </linearGradient>
        <path d="M3.60840676,0.946664323 C2.64740589,0.944419035 1.70641611,0.942220501 0.785437398,0.940068721 L1.36563476,3.6821107 L5.12587934,8.08581152 L5.96211051,3.20921715 L5.48026527,0.661881488 C5.19336047,0.853982 4.56940763,0.948909612 3.60840676,0.946664323 Z" id="path-9"></path>
        <filter x="-58.0%" y="-40.4%" width="215.9%" height="180.8%" filterUnits="objectBoundingBox" id="filter-11">
            <feOffset dx="0" dy="0" in="SourceAlpha" result="shadowOffsetOuter1"></feOffset>
            <feGaussianBlur stdDeviation="1" in="shadowOffsetOuter1" result="shadowBlurOuter1"></feGaussianBlur>
            <feColorMatrix values="0 0 0 0 0.609233469   0 0 0 0 0.608002929   0 0 0 0 0.608002929  0 0 0 0.3261309 0" type="matrix" in="shadowBlurOuter1"></feColorMatrix>
        </filter>
        <filter x="-48.3%" y="-33.7%" width="196.6%" height="167.3%" filterUnits="objectBoundingBox" id="filter-12">
            <feGaussianBlur stdDeviation="0.5" in="SourceAlpha" result="shadowBlurInner1"></feGaussianBlur>
            <feOffset dx="0" dy="0" in="shadowBlurInner1" result="shadowOffsetInner1"></feOffset>
            <feComposite in="shadowOffsetInner1" in2="SourceAlpha" operator="arithmetic" k2="-1" k3="1" result="shadowInnerInner1"></feComposite>
            <feColorMatrix values="0 0 0 0 1   0 0 0 0 0.74677379   0 0 0 0 0.570922256  0 0 0 0.353310752 0" type="matrix" in="shadowInnerInner1"></feColorMatrix>
        </filter>
        <path d="M3.47560754,4.29379735 C4.69248954,7.75547902 5.66923658,10.0578461 6.40584867,11.2008986 C8.18962518,13.9689094 9.74690505,15.9943221 11.0492287,17.2509007 C12.3044594,18.4620407 13.1152092,19.4415756 13.8068182,20.2937973 L6.00203017,16.7982698 L5.70217807,12.7751883 L3.14015152,13.6310299 L3.21620194,11.5142084 L3.47560754,4.29379735 Z" id="path-13"></path>
        <filter x="-14.1%" y="-9.4%" width="128.1%" height="118.8%" filterUnits="objectBoundingBox" id="filter-14">
            <feOffset dx="0" dy="0" in="SourceAlpha" result="shadowOffsetOuter1"></feOffset>
            <feGaussianBlur stdDeviation="0.5" in="shadowOffsetOuter1" result="shadowBlurOuter1"></feGaussianBlur>
            <feColorMatrix values="0 0 0 0 0.0365752419   0 0 0 0 0.186771161   0 0 0 0 0.509142889  0 0 0 0.694629589 0" type="matrix" in="shadowBlurOuter1"></feColorMatrix>
        </filter>
        <path d="M9.73295455,2.87689394 C11.1579705,6.78325423 11.8748119,9.56842815 11.8834788,11.2324157 C11.9147727,17.2406796 12.1339465,20.6228017 11.8834788,21.3011364 C12.6201556,19.5510669 13.3155877,17.4812119 13.9697749,15.0915712 L12.6143459,13.7054489 L14.0965909,10.4968295 L9.73295455,2.87689394 Z" id="path-15"></path>
        <filter x="-34.4%" y="-8.1%" width="168.8%" height="116.3%" filterUnits="objectBoundingBox" id="filter-16">
            <feOffset dx="0" dy="0" in="SourceAlpha" result="shadowOffsetOuter1"></feOffset>
            <feGaussianBlur stdDeviation="0.5" in="shadowOffsetOuter1" result="shadowBlurOuter1"></feGaussianBlur>
            <feColorMatrix values="0 0 0 0 0.0365752419   0 0 0 0 0.186771161   0 0 0 0 0.509142889  0 0 0 0.658271416 0" type="matrix" in="shadowBlurOuter1"></feColorMatrix>
        </filter>
        <linearGradient x1="50%" y1="6.34623301%" x2="50%" y2="74.9474424%" id="linearGradient-17">
            <stop stop-color="#FF594B" offset="0%"></stop>
            <stop stop-color="#F83026" offset="100%"></stop>
        </linearGradient>
        <polygon id="path-18" points="2.13597146 3.21574257 1.93939394 7.61855794 5.55125081 13.5757576 5.81818182 6.42652623 3.56307823 2.90909091"></polygon>
        <filter x="-77.3%" y="-28.1%" width="254.7%" height="156.2%" filterUnits="objectBoundingBox" id="filter-19">
            <feOffset dx="0" dy="0" in="SourceAlpha" result="shadowOffsetOuter1"></feOffset>
            <feGaussianBlur stdDeviation="1" in="shadowOffsetOuter1" result="shadowBlurOuter1"></feGaussianBlur>
            <feColorMatrix values="0 0 0 0 0.50206635   0 0 0 0 0.0301258943   0 0 0 0 0.0301258943  0 0 0 0.233883304 0" type="matrix" in="shadowBlurOuter1"></feColorMatrix>
        </filter>
        <filter x="-41.8%" y="-23.7%" width="183.6%" height="147.5%" filterUnits="objectBoundingBox" id="filter-20">
            <feGaussianBlur stdDeviation="0.149467795" in="SourceGraphic"></feGaussianBlur>
        </filter>
        <filter x="-17.3%" y="-21.9%" width="134.6%" height="143.8%" filterUnits="objectBoundingBox" id="filter-21">
            <feGaussianBlur stdDeviation="0.149467795" in="SourceGraphic"></feGaussianBlur>
        </filter>
        <linearGradient x1="50%" y1="0%" x2="50%" y2="100%" id="linearGradient-22">
            <stop stop-color="#7E7E7E" offset="0%"></stop>
            <stop stop-color="#2A2A2A" offset="100%"></stop>
        </linearGradient>
        <linearGradient x1="50%" y1="0%" x2="50%" y2="21.6881732%" id="linearGradient-23">
            <stop stop-color="#5B5B5B" offset="0%"></stop>
            <stop stop-color="#3E3E3E" offset="100%"></stop>
        </linearGradient>
        <radialGradient cx="50%" cy="50%" fx="50%" fy="50%" r="57.8535623%" gradientTransform="translate(0.500000,0.500000),scale(0.939962,1.000000),rotate(90.000000),translate(-0.500000,-0.500000)" id="radialGradient-24">
            <stop stop-color="#FFF2E3" offset="0%"></stop>
            <stop stop-color="#FFECD7" offset="32.5414837%"></stop>
            <stop stop-color="#FFEAD3" offset="63.0525472%"></stop>
            <stop stop-color="#FFC7AA" offset="85.1156429%"></stop>
            <stop stop-color="#FF9C76" offset="100%"></stop>
        </radialGradient>
        <path d="M7.72502813,0 C10.7600563,0 13.3381973,2.02800246 14.2674219,4.84820365 L14.3319601,4.8444101 C14.8371935,4.8444101 15.2467661,5.2510819 15.2467661,5.75273699 C15.2467661,6.15594318 14.9821752,6.49778855 14.6159883,6.6164328 C14.6301122,6.79676208 14.6368954,6.98040476 14.6368954,7.16568994 C14.6368954,11.1231912 11.542347,14.3313799 7.72502813,14.3313799 C3.90770924,14.3313799 0.813160856,11.1231912 0.813160856,7.16568994 C0.813160856,6.99397877 0.818986612,6.82367825 0.830444388,6.65498922 C0.364518139,6.61472124 0,6.22599651 0,5.75273699 C0,5.2510819 0.409572581,4.8444101 0.914805963,4.8444101 C1.00411489,4.8444101 1.09043473,4.8571173 1.1720316,4.8808101 C2.09124264,2.04425774 4.67786071,0 7.72502813,0 Z" id="path-25"></path>
        <filter x="-12.4%" y="-28.7%" width="124.7%" height="157.4%" filterUnits="objectBoundingBox" id="filter-27">
            <feGaussianBlur stdDeviation="0.373314757" in="SourceGraphic"></feGaussianBlur>
        </filter>
        <linearGradient x1="36.2339147%" y1="63.7308865%" x2="50%" y2="31.010207%" id="linearGradient-28">
            <stop stop-color="#727272" offset="0%"></stop>
            <stop stop-color="#515151" offset="39.0294357%"></stop>
            <stop stop-color="#3E3E3E" offset="100%"></stop>
        </linearGradient>
    </defs>
    <g id="视觉走查阶段更新" stroke="none" stroke-width="1" fill="none" fill-rule="evenodd">
        <g id="切图" transform="translate(-69.000000, -12.000000)">
            <g id="编组-5" transform="translate(69.000000, 12.000000)">
                <g id="编组-3">
                    <mask id="mask-2" fill="white">
                        <use xlink:href="#path-1"></use>
                    </mask>
                    <use id="蒙版" fill="#FFF5E9" xlink:href="#path-1"></use>
                    <g mask="url(#mask-2)">
                        <g transform="translate(6.787879, 19.878788)">
                            <g id="矩形" stroke-width="1" fill="none" fill-rule="evenodd" transform="translate(0.484848, 2.909091)">
                                <mask id="mask-5" fill="white">
                                    <use xlink:href="#path-4"></use>
                                </mask>
                                <use id="蒙版" fill="url(#linearGradient-3)" xlink:href="#path-4"></use>
                                <mask id="mask-7" fill="white">
                                    <use xlink:href="#path-6"></use>
                                </mask>
                                <use id="蒙版" fill="url(#linearGradient-3)" transform="translate(5.356122, 17.947376) scale(-1, 1) translate(-5.356122, -17.947376) " xlink:href="#path-6"></use>
                            </g>
                            <path d="M6.78787879,3.29420903 C6.26368187,5.8450222 6.15332044,7.78423946 6.45679451,9.1118608 C6.76026858,10.4394821 7.04286012,12.7654527 7.30456913,16.0897725 L10.2687576,21.3637547 C10.7049479,20.0365767 10.9466436,19.3729877 10.9938447,19.3729877 C11.0199978,19.3729877 12.955265,18.1008804 12.3410275,14.8219697 C12.1212121,13.6485559 12.6288488,12.4848485 13.6334346,10.8799847 C14.1462943,10.060672 13.3235853,7.40370743 11.1653075,2.90909091 L6.78787879,3.29420903 Z" id="路径-21" fill="#FFFFFF" fill-rule="evenodd"></path>
                            <g id="路径-2" stroke-width="1" fill="none" fill-rule="evenodd" transform="translate(5.333333, 0.000000)">
                                <mask id="mask-10" fill="white">
                                    <use xlink:href="#path-9"></use>
                                </mask>
                                <g id="蒙版" transform="translate(3.373774, 4.373847) rotate(12.000000) translate(-3.373774, -4.373847) ">
                                    <use fill="black" fill-opacity="1" filter="url(#filter-11)" xlink:href="#path-9"></use>
                                    <use fill="url(#linearGradient-8)" fill-rule="evenodd" xlink:href="#path-9"></use>
                                    <use fill="black" fill-opacity="1" filter="url(#filter-12)" xlink:href="#path-9"></use>
                                </g>
                            </g>
                            <g id="路径-19" fill="none" transform="translate(8.473485, 12.293797) rotate(23.000000) translate(-8.473485, -12.293797) ">
                                <use fill="black" fill-opacity="1" filter="url(#filter-14)" xlink:href="#path-13"></use>
                                <use fill="#5C96FF" fill-rule="evenodd" xlink:href="#path-13"></use>
                            </g>
                            <g id="路径-20" fill="none" transform="translate(11.914773, 12.089015) rotate(10.000000) translate(-11.914773, -12.089015) ">
                                <use fill="black" fill-opacity="1" filter="url(#filter-16)" xlink:href="#path-15"></use>
                                <use fill="#5C96FF" fill-rule="evenodd" xlink:href="#path-15"></use>
                            </g>
                            <g id="领带" stroke-width="1" fill="none" fill-rule="evenodd" transform="translate(9.311081, 14.703045) rotate(8.000000) translate(-9.311081, -14.703045) translate(6.311081, 7.703045)">
                                <polygon id="路径-52" fill="#FA3D32" points="1.92531531 1.65093921 2.3748213 0.96969697 3.15643958 1.28046359 3.87878788 1.89286363 3.73398047 3.54109234 2.41920189 3.87878788 1.45454545 2.57962573"></polygon>
                                <g id="路径-53">
                                    <use fill="black" fill-opacity="1" filter="url(#filter-19)" xlink:href="#path-18"></use>
                                    <use fill="url(#linearGradient-17)" fill-rule="evenodd" xlink:href="#path-18"></use>
                                </g>
                                <line x1="2.35518146" y1="0.349461137" x2="0.41578752" y2="3.25855205" id="路径-54" stroke="#FF8383" stroke-width="0.871895469" opacity="0.679803757" filter="url(#filter-20)"></line>
                                <line x1="5.12285823" y1="3.1130975" x2="2.01174712" y2="0.494915683" id="路径-54备份" stroke="#FF8383" stroke-width="0.871895469" opacity="0.679803757" filter="url(#filter-21)"></line>
                            </g>
                        </g>
                    </g>
                </g>
                <g id="头部" transform="translate(4.848485, 2.424242)">
                    <g id="头" transform="translate(1.034343, 0.000000)">
                        <ellipse id="椭圆形" fill="url(#linearGradient-22)" cx="10.6442379" cy="2.22035463" rx="2.33783746" ry="2.22035463"></ellipse>
                        <ellipse id="椭圆形" fill="url(#linearGradient-23)" cx="10.3393026" cy="9.78974541" rx="7.92831835" ry="7.56939078"></ellipse>
                        <g id="编组-2备份" transform="translate(2.614274, 5.651812)">
                            <g id="路径-12">
                                <mask id="mask-26" fill="white">
                                    <use xlink:href="#path-25"></use>
                                </mask>
                                <use id="蒙版" fill="url(#radialGradient-24)" xlink:href="#path-25"></use>
                                <path d="M1.62632171,3.49696327 C3.79475066,3.84022189 5.7598894,3.38104394 7.52173792,2.11942942 C9.28358644,0.857814893 9.96122049,0.0840549466 9.55464006,-0.201850421 L9.14805963,0.0888636901 C5.48883578,1.98084196 2.98158981,3.09503979 1.62632171,3.43145715 C0.271053619,3.76787452 0.271053619,3.78970989 1.62632171,3.49696327 Z" fill="#E7A582" filter="url(#filter-27)" mask="url(#mask-26)"></path>
                            </g>
                            <g id="编组" transform="translate(1.423031, 3.835158)">
                                <path d="M1.79221392,2.54652341 C2.6513848,1.57362631 3.51055568,1.57362631 4.36972655,2.54652341" id="路径-2" stroke="#333333" stroke-width="0.559972135" stroke-linecap="round"></path>
                                <path d="M8.33489878,2.54652341 C9.19406965,1.57362631 10.0532405,1.57362631 10.9124114,2.54652341" id="路径-2备份" stroke="#333333" stroke-width="0.559972135" stroke-linecap="round"></path>
                                <path d="M5.28554557,6.72657 C6.03518392,5.56269294 6.78482227,5.56269294 7.53446063,6.72657" id="路径-2备份-4" stroke="#FE3100" stroke-width="0.559972135" stroke-linecap="round" transform="translate(6.410003, 6.290116) rotate(-180.000000) translate(-6.410003, -6.290116) "></path>
                                <path d="M8.33489878,0.234512811 C8.93656854,-0.078170937 9.58785136,-0.078170937 10.2887473,0.234512811" id="路径-2备份-2" stroke="#333333" stroke-width="0.559972135" stroke-linecap="round"></path>
                                <path d="M2.23619235,0.234512811 C2.83786211,-0.078170937 3.48914494,-0.078170937 4.19004084,0.234512811" id="路径-2备份-3" stroke="#333333" stroke-width="0.559972135" stroke-linecap="round"></path>
                                <line x1="11.1809618" y1="1.81665379" x2="10.5710911" y2="2.07147971" id="路径-3" stroke="#333333" stroke-width="0.5" stroke-linecap="round"></line>
                                <line x1="1.91325685" y1="1.81665379" x2="1.36320885" y2="2.07147971" id="路径-3备份" stroke="#333333" stroke-width="0.5" stroke-linecap="round" transform="translate(1.668144, 2.018504) scale(-1, 1) translate(-1.668144, -2.018504) "></line>
                                <ellipse id="椭圆形" fill="#FFB1A0" cx="1.4230315" cy="4.23885884" rx="1.4230315" ry="1"></ellipse>
                                <ellipse id="椭圆形备份" fill="#FFB1A0" cx="10.9776716" cy="4.23885884" rx="1.4230315" ry="1"></ellipse>
                            </g>
                        </g>
                        <path d="M11.9656243,5.80979 C10.6598038,6.98093143 9.72943834,7.75343307 9.17452781,8.12729492 C7.92941013,8.9661725 6.13529883,8.99609659 4.67189065,9.28511936 C4.50577575,8.48524317 5.1770648,7.54533621 6.68575781,6.46539848 C8.19445081,5.38546075 9.95440632,5.16692459 11.9656243,5.80979 Z" id="路径-8" fill="url(#linearGradient-28)"></path>
                    </g>
                </g>
            </g>
        </g>
    </g>
</svg>